<svg id="Layer_1" data-name="Layer 1" xmlns="http://www.w3.org/2000/svg" viewBox="0 0 1663.62 237.6" width="179px" height="28px"><defs><style>.cls-1{fill:#88c299;}</style></defs><path d="M410.83,129.2q16.8,0,28.8,4.8t17.6,8.4q13.59,10,16.4-12.8h8.8q-.81,11.6-1.2,27.4t-.4,42.2H472a121.23,121.23,0,0,0-7.6-28.8A60,60,0,0,0,448,147q-10.8-9.41-28.4-9.4-12.4,0-20.6,7.2t-8.2,20.4a32.63,32.63,0,0,0,7.2,21,85,85,0,0,0,18.6,16.8q11.4,7.8,23.8,17a247.86,247.86,0,0,1,35.8,29.8q14.59,15,14.6,39,0,18.39-10.2,31.4a65.92,65.92,0,0,1-26.8,20,93.41,93.41,0,0,1-36.6,7,88.76,88.76,0,0,1-19.6-2A76.88,76.88,0,0,1,382,340q-5.2-2.81-9.4-5.2a55.17,55.17,0,0,0-8.6-4q-4-2-7,1.6t-4.6,12h-8.8q.8-12.81,1.2-31.2t.4-48.8H354a190,190,0,0,0,8.6,38.6q5.79,16.59,17,26t28.8,9.4q10.8,0,20.8-7.2t10-24.4q0-17.61-12-29.2a290.44,290.44,0,0,0-30-24.8q-13.61-10-25.4-19.6a86,86,0,0,1-19.2-21.6q-7.41-12-7.4-28.4,0-18,9.2-29.8a58.07,58.07,0,0,1,24.2-18A83.32,83.32,0,0,1,410.83,129.2Z" transform="translate(0 -110.73)"/><path d="M570,344.4q-26.4,0-38.4-13.6t-12-34.4q0-16.8,8-27.8a60.54,60.54,0,0,1,20.6-17.8,190.06,190.06,0,0,1,26.6-11.8q14-5,26.4-9.6a86,86,0,0,0,20.4-10.4q8-5.81,8-15V174.8q0-12.81-3.8-21a26.78,26.78,0,0,0-11.2-12.4q-7.41-4.2-18.6-4.2a69.64,69.64,0,0,0-17.6,2.4,29.72,29.72,0,0,0-15.2,9.2q10.39,2.79,16.2,10.4t5.8,18.4q0,12.39-8.2,19.4t-20.6,7q-13.2,0-20-8.4a30.2,30.2,0,0,1-6.8-19.6q0-11.2,5.6-18.6a53.94,53.94,0,0,1,15.6-13.4q10-6.81,25.6-10.8a136.47,136.47,0,0,1,34-4,116,116,0,0,1,31.21,3.8,52,52,0,0,1,23.2,13.4,42.71,42.71,0,0,1,12.4,22.8q2.79,13.59,2.8,33.2V312q0,10,2.2,14.2t7.8,4.2a14.79,14.79,0,0,0,8.4-2.4q3.6-2.4,7.2-5.2l4.4,6.8a81.37,81.37,0,0,1-18.4,10.8q-9.6,4-23.21,4-22.78,0-30.39-10.2a40.19,40.19,0,0,1-8-23.4q-10.8,18-26,25.8A73.4,73.4,0,0,1,570,344.4Zm26.8-22.4a34.32,34.32,0,0,0,17.2-4.8q8.4-4.8,15.6-16V220.4q-5.21,8-15.21,13.2T594.23,245a61.42,61.42,0,0,0-17.6,16.2q-7.41,10-7.4,27.6,0,17.19,7.8,25.2T596.83,322Z" transform="translate(0 -110.73)"/><path d="M854.42,129.2q12.39,0,20.6,5.2a33,33,0,0,1,12.2,13.2,37.15,37.15,0,0,1,4,16.8q0,13.2-7.8,22t-20.6,8.8q-12,0-19.6-6.4t-7.6-17.6q0-10,5-16.8A41.21,41.21,0,0,1,852,143.6a15.68,15.68,0,0,0-10-1.6,35.19,35.19,0,0,0-22.4,11,70.19,70.19,0,0,0-15,23.2,68,68,0,0,0-5.4,25.4v98.8q0,19.59,10,26.2t29.2,6.6v8.4q-9.21-.41-26.6-1t-36.2-.6q-15.6,0-31,.6t-23,1v-8.4q14.79,0,21-6t6.2-22.8v-126q0-18-5.8-26.6t-21.4-8.6v-8.4q12.79,1.2,24.8,1.2a272.73,272.73,0,0,0,28.2-1.4,180.06,180.06,0,0,0,24.6-4.2V172a87.46,87.46,0,0,1,12.6-20.8,65.12,65.12,0,0,1,18.8-15.8A47.57,47.57,0,0,1,854.42,129.2Z" transform="translate(0 -110.73)"/><path d="M1001.22,129.2a104.76,104.76,0,0,1,27.4,3.4,75.57,75.57,0,0,1,21.8,9.4,46.68,46.68,0,0,1,15.2,15,36.69,36.69,0,0,1,5.6,19.8q0,13.2-8,21.2a27.14,27.14,0,0,1-20,8q-12.39,0-20.2-7.2t-7.8-19.2q0-11.61,6.8-19.2a32,32,0,0,1,16.4-10q-3.6-5.21-11.2-8.6a40.58,40.58,0,0,0-16.8-3.4,38.9,38.9,0,0,0-21.6,6.2q-9.6,6.19-16.6,18.4t-10.8,30q-3.79,17.79-3.8,41,0,32.4,7.8,51.2t20.2,26.6a48.76,48.76,0,0,0,26.4,7.8q12.4,0,27.6-7.2T1066,284l7.6,2.8a102.64,102.64,0,0,1-14.2,28A80.36,80.36,0,0,1,1034,338q-15.6,9.19-38,9.2-25.59,0-46.4-11.8t-33-35.8q-12.2-24-12.2-59.6,0-35.2,12.4-59.8t34.6-37.8Q973.62,129.2,1001.22,129.2Z" transform="translate(0 -110.73)"/><path d="M1197.62,129.2q27.6,0,49,11t34,35q12.6,24,12.6,63.2t-12.6,63.2q-12.6,24-34,34.8t-49,10.8q-27.6,0-49.2-10.8t-34-34.8q-12.4-24-12.4-63.2t12.4-63.2q12.4-24,34-35T1197.62,129.2Zm0,8q-18.8,0-30.6,23.8t-11.8,77.4q0,53.6,11.8,77.2t30.6,23.6q18.41,0,30.4-23.6t12-77.2q0-53.61-12-77.4T1197.62,137.2Z" transform="translate(0 -110.73)"/><path d="M1460.42,129.2q15.6,0,26.2,4.4t16.6,11.2q7.2,7.59,10,20.2t2.8,31.8V304.4q0,16.8,5.8,22.8t19.8,6v8.4q-7.2-.41-21.6-1t-28-.6q-14.4,0-27.8.6t-20.2,1v-8.4q11.6,0,16.6-6t5-22.8V183.2a107.21,107.21,0,0,0-1.6-19.4q-1.61-8.61-6.8-13.6t-16-5a37.4,37.4,0,0,0-22.4,7.2,48.94,48.94,0,0,0-15.8,19.8,66.61,66.61,0,0,0-5.8,28.2v104q0,16.8,4.8,22.8t16.8,6v8.4q-6.81-.41-19.8-1t-26.6-.6q-14.81,0-30,.6t-22.8,1v-8.4q14.79,0,21-6t6.2-22.8v-126q0-18-5.8-26.6t-21.4-8.6v-8.4q12.8,1.2,24.8,1.2a272.73,272.73,0,0,0,28.2-1.4,180.06,180.06,0,0,0,24.6-4.2v40q10-22,26.8-31.6A72.12,72.12,0,0,1,1460.42,129.2Zm120.4,0q15.6,0,26.2,4.4t16.6,11.2q7.2,7.59,10,20.2t2.8,31.8V304.4q0,16.8,6.2,22.8t21,6v8.4q-7.2-.41-22.2-1t-29-.6q-14.4,0-27.8.6t-20.2,1v-8.4q11.6,0,16.6-6t5-22.8V183.2a95.08,95.08,0,0,0-1.8-19.4,24.27,24.27,0,0,0-7.4-13.6q-5.61-5-16.8-5-18.4,0-31.2,16.4t-13.2,39.6l-2-28.8q10.8-24.81,28.8-34A83.12,83.12,0,0,1,1580.82,129.2Z" transform="translate(0 -110.73)"/><path class="cls-1" d="M220.81,177.16V146.51a35.53,35.53,0,0,0-35.44-35.78H88.69a35.82,35.82,0,0,0-35.78,35.78v30.65H15.58A15.55,15.55,0,0,0,0,192.71v33.86a15.55,15.55,0,0,0,15.58,15.55H20.2l17,93.45a15.59,15.59,0,0,0,15.3,12.76h169a15.57,15.57,0,0,0,15.3-12.76l17-93.45h4.31a15.57,15.57,0,0,0,15.58-15.55V192.71a15.57,15.57,0,0,0-15.58-15.55Zm-139-30.65a7,7,0,0,1,6.93-6.93h96.68a6.75,6.75,0,0,1,6.62,6.93v30.65H81.76Zm21.52,146.21a10.76,10.76,0,1,1-21.52,0V233.25a10.76,10.76,0,1,1,21.52,0Zm44.54,0a10.78,10.78,0,1,1-21.55,0V233.25a10.78,10.78,0,1,1,21.55,0Zm44.54,0a10.78,10.78,0,1,1-21.55,0V233.25a10.78,10.78,0,1,1,21.55,0Zm0,0" transform="translate(0 -110.73)"/></svg>